<svg width="512" height="512" viewBox="0 0 512 512" fill="none" xmlns="http://www.w3.org/2000/svg">
    <rect width="512" height="512" rx="120" fill="#0f172a"/>
    <path d="M344.5 244.1L272.4 172C266.3 165.9 256.3 165.9 250.2 172L235.6 186.6C232.5 189.7 232.5 194.8 235.6 197.9L285.4 247.7L186.6 346.5L143.4 303.3C140.3 300.2 135.2 300.2 132.1 303.3L117.5 317.9C111.4 324 111.4 334 117.5 340.1L179.9 402.5C186 408.6 196 408.6 202.1 402.5L344.5 260.1C350.6 254 350.6 244 344.5 237.9V244.1Z" fill="url(#paint0_linear)"/>
    <path d="M402.5 117.5C396.4 111.4 386.4 111.4 380.3 117.5L296.9 200.9L319.1 223.1L402.5 139.7C408.6 133.6 408.6 123.6 402.5 117.5Z" fill="url(#paint1_linear)"/>
    <defs>
        <linearGradient id="paint0_linear" x1="114" y1="406" x2="348" y2="172" gradientUnits="userSpaceOnUse">
            <stop stop-color="#6366F1"/>
            <stop offset="1" stop-color="#A855F7"/>
        </linearGradient>
        <linearGradient id="paint1_linear" x1="296.9" y1="223.1" x2="402.5" y2="117.5" gradientUnits="userSpaceOnUse">
            <stop stop-color="#38BDF8"/>
            <stop offset="1" stop-color="#6366F1"/>
        </linearGradient>
    </defs>
</svg>
